<?xml version="1.0" encoding="utf-8" standalone="no"?>
<!DOCTYPE svg PUBLIC "-//W3C//DTD SVG 1.1//EN"
  "http://www.w3.org/Graphics/SVG/1.1/DTD/svg11.dtd">
<svg xmlns:xlink="http://www.w3.org/1999/xlink" width="432pt" height="288pt" viewBox="0 0 432 288" xmlns="http://www.w3.org/2000/svg" version="1.1">
 <metadata>
  <rdf:RDF xmlns:dc="http://purl.org/dc/elements/1.1/" xmlns:cc="http://creativecommons.org/ns#" xmlns:rdf="http://www.w3.org/1999/02/22-rdf-syntax-ns#">
   <cc:Work>
    <dc:type rdf:resource="http://purl.org/dc/dcmitype/StillImage"/>
    <dc:date>2024-02-07T14:20:15.002722</dc:date>
    <dc:format>image/svg+xml</dc:format>
    <dc:creator>
     <cc:Agent>
      <dc:title>Matplotlib v3.5.1, https://matplotlib.org/</dc:title>
     </cc:Agent>
    </dc:creator>
   </cc:Work>
  </rdf:RDF>
 </metadata>
 <defs>
  <style type="text/css">*{stroke-linejoin: round; stroke-linecap: butt}</style>
 </defs>
 <g id="figure_1">
  <g id="patch_1">
   <path d="M 0 288 
L 432 288 
L 432 0 
L 0 0 
L 0 288 
z
" style="fill: none"/>
  </g>
  <g id="axes_1">
   <g id="patch_2">
    <path d="M 54 252 
L 388.8 252 
L 388.8 34.56 
L 54 34.56 
z
" style="fill: #ffffff"/>
   </g>
   <g id="matplotlib.axis_1">
    <g id="xtick_1">
     <g id="line2d_1">
      <defs>
       <path id="m7e8c873136" d="M 0 0 
L 0 3.5 
" style="stroke: #000000; stroke-width: 0.8"/>
      </defs>
      <g>
       <use xlink:href="#m7e8c873136" x="69.218182" y="252" style="stroke: #000000; stroke-width: 0.8"/>
      </g>
     </g>
     <g id="text_1">
      <!-- 0.0 -->
      <g transform="translate(61.266619 266.598437)scale(0.1 -0.1)">
       <defs>
        <path id="DejaVuSans-30" d="M 2034 4250 
Q 1547 4250 1301 3770 
Q 1056 3291 1056 2328 
Q 1056 1369 1301 889 
Q 1547 409 2034 409 
Q 2525 409 2770 889 
Q 3016 1369 3016 2328 
Q 3016 3291 2770 3770 
Q 2525 4250 2034 4250 
z
M 2034 4750 
Q 2819 4750 3233 4129 
Q 3647 3509 3647 2328 
Q 3647 1150 3233 529 
Q 2819 -91 2034 -91 
Q 1250 -91 836 529 
Q 422 1150 422 2328 
Q 422 3509 836 4129 
Q 1250 4750 2034 4750 
z
" transform="scale(0.015625)"/>
        <path id="DejaVuSans-2e" d="M 684 794 
L 1344 794 
L 1344 0 
L 684 0 
L 684 794 
z
" transform="scale(0.015625)"/>
       </defs>
       <use xlink:href="#DejaVuSans-30"/>
       <use xlink:href="#DejaVuSans-2e" x="63.623047"/>
       <use xlink:href="#DejaVuSans-30" x="95.410156"/>
      </g>
     </g>
    </g>
    <g id="xtick_2">
     <g id="line2d_2">
      <g>
       <use xlink:href="#m7e8c873136" x="130.090909" y="252" style="stroke: #000000; stroke-width: 0.8"/>
      </g>
     </g>
     <g id="text_2">
      <!-- 0.2 -->
      <g transform="translate(122.139347 266.598437)scale(0.1 -0.1)">
       <defs>
        <path id="DejaVuSans-32" d="M 1228 531 
L 3431 531 
L 3431 0 
L 469 0 
L 469 531 
Q 828 903 1448 1529 
Q 2069 2156 2228 2338 
Q 2531 2678 2651 2914 
Q 2772 3150 2772 3378 
Q 2772 3750 2511 3984 
Q 2250 4219 1831 4219 
Q 1534 4219 1204 4116 
Q 875 4013 500 3803 
L 500 4441 
Q 881 4594 1212 4672 
Q 1544 4750 1819 4750 
Q 2544 4750 2975 4387 
Q 3406 4025 3406 3419 
Q 3406 3131 3298 2873 
Q 3191 2616 2906 2266 
Q 2828 2175 2409 1742 
Q 1991 1309 1228 531 
z
" transform="scale(0.015625)"/>
       </defs>
       <use xlink:href="#DejaVuSans-30"/>
       <use xlink:href="#DejaVuSans-2e" x="63.623047"/>
       <use xlink:href="#DejaVuSans-32" x="95.410156"/>
      </g>
     </g>
    </g>
    <g id="xtick_3">
     <g id="line2d_3">
      <g>
       <use xlink:href="#m7e8c873136" x="190.963636" y="252" style="stroke: #000000; stroke-width: 0.8"/>
      </g>
     </g>
     <g id="text_3">
      <!-- 0.4 -->
      <g transform="translate(183.012074 266.598437)scale(0.1 -0.1)">
       <defs>
        <path id="DejaVuSans-34" d="M 2419 4116 
L 825 1625 
L 2419 1625 
L 2419 4116 
z
M 2253 4666 
L 3047 4666 
L 3047 1625 
L 3713 1625 
L 3713 1100 
L 3047 1100 
L 3047 0 
L 2419 0 
L 2419 1100 
L 313 1100 
L 313 1709 
L 2253 4666 
z
" transform="scale(0.015625)"/>
       </defs>
       <use xlink:href="#DejaVuSans-30"/>
       <use xlink:href="#DejaVuSans-2e" x="63.623047"/>
       <use xlink:href="#DejaVuSans-34" x="95.410156"/>
      </g>
     </g>
    </g>
    <g id="xtick_4">
     <g id="line2d_4">
      <g>
       <use xlink:href="#m7e8c873136" x="251.836364" y="252" style="stroke: #000000; stroke-width: 0.8"/>
      </g>
     </g>
     <g id="text_4">
      <!-- 0.6 -->
      <g transform="translate(243.884801 266.598437)scale(0.1 -0.1)">
       <defs>
        <path id="DejaVuSans-36" d="M 2113 2584 
Q 1688 2584 1439 2293 
Q 1191 2003 1191 1497 
Q 1191 994 1439 701 
Q 1688 409 2113 409 
Q 2538 409 2786 701 
Q 3034 994 3034 1497 
Q 3034 2003 2786 2293 
Q 2538 2584 2113 2584 
z
M 3366 4563 
L 3366 3988 
Q 3128 4100 2886 4159 
Q 2644 4219 2406 4219 
Q 1781 4219 1451 3797 
Q 1122 3375 1075 2522 
Q 1259 2794 1537 2939 
Q 1816 3084 2150 3084 
Q 2853 3084 3261 2657 
Q 3669 2231 3669 1497 
Q 3669 778 3244 343 
Q 2819 -91 2113 -91 
Q 1303 -91 875 529 
Q 447 1150 447 2328 
Q 447 3434 972 4092 
Q 1497 4750 2381 4750 
Q 2619 4750 2861 4703 
Q 3103 4656 3366 4563 
z
" transform="scale(0.015625)"/>
       </defs>
       <use xlink:href="#DejaVuSans-30"/>
       <use xlink:href="#DejaVuSans-2e" x="63.623047"/>
       <use xlink:href="#DejaVuSans-36" x="95.410156"/>
      </g>
     </g>
    </g>
    <g id="xtick_5">
     <g id="line2d_5">
      <g>
       <use xlink:href="#m7e8c873136" x="312.709091" y="252" style="stroke: #000000; stroke-width: 0.8"/>
      </g>
     </g>
     <g id="text_5">
      <!-- 0.8 -->
      <g transform="translate(304.757528 266.598437)scale(0.1 -0.1)">
       <defs>
        <path id="DejaVuSans-38" d="M 2034 2216 
Q 1584 2216 1326 1975 
Q 1069 1734 1069 1313 
Q 1069 891 1326 650 
Q 1584 409 2034 409 
Q 2484 409 2743 651 
Q 3003 894 3003 1313 
Q 3003 1734 2745 1975 
Q 2488 2216 2034 2216 
z
M 1403 2484 
Q 997 2584 770 2862 
Q 544 3141 544 3541 
Q 544 4100 942 4425 
Q 1341 4750 2034 4750 
Q 2731 4750 3128 4425 
Q 3525 4100 3525 3541 
Q 3525 3141 3298 2862 
Q 3072 2584 2669 2484 
Q 3125 2378 3379 2068 
Q 3634 1759 3634 1313 
Q 3634 634 3220 271 
Q 2806 -91 2034 -91 
Q 1263 -91 848 271 
Q 434 634 434 1313 
Q 434 1759 690 2068 
Q 947 2378 1403 2484 
z
M 1172 3481 
Q 1172 3119 1398 2916 
Q 1625 2713 2034 2713 
Q 2441 2713 2670 2916 
Q 2900 3119 2900 3481 
Q 2900 3844 2670 4047 
Q 2441 4250 2034 4250 
Q 1625 4250 1398 4047 
Q 1172 3844 1172 3481 
z
" transform="scale(0.015625)"/>
       </defs>
       <use xlink:href="#DejaVuSans-30"/>
       <use xlink:href="#DejaVuSans-2e" x="63.623047"/>
       <use xlink:href="#DejaVuSans-38" x="95.410156"/>
      </g>
     </g>
    </g>
    <g id="xtick_6">
     <g id="line2d_6">
      <g>
       <use xlink:href="#m7e8c873136" x="373.581818" y="252" style="stroke: #000000; stroke-width: 0.8"/>
      </g>
     </g>
     <g id="text_6">
      <!-- 1.0 -->
      <g transform="translate(365.630256 266.598437)scale(0.1 -0.1)">
       <defs>
        <path id="DejaVuSans-31" d="M 794 531 
L 1825 531 
L 1825 4091 
L 703 3866 
L 703 4441 
L 1819 4666 
L 2450 4666 
L 2450 531 
L 3481 531 
L 3481 0 
L 794 0 
L 794 531 
z
" transform="scale(0.015625)"/>
       </defs>
       <use xlink:href="#DejaVuSans-31"/>
       <use xlink:href="#DejaVuSans-2e" x="63.623047"/>
       <use xlink:href="#DejaVuSans-30" x="95.410156"/>
      </g>
     </g>
    </g>
    <g id="text_7">
     <!-- x -->
     <g transform="translate(218.440625 280.276563)scale(0.1 -0.1)">
      <defs>
       <path id="DejaVuSans-78" d="M 3513 3500 
L 2247 1797 
L 3578 0 
L 2900 0 
L 1881 1375 
L 863 0 
L 184 0 
L 1544 1831 
L 300 3500 
L 978 3500 
L 1906 2253 
L 2834 3500 
L 3513 3500 
z
" transform="scale(0.015625)"/>
      </defs>
      <use xlink:href="#DejaVuSans-78"/>
     </g>
    </g>
   </g>
   <g id="matplotlib.axis_2">
    <g id="ytick_1">
     <g id="line2d_7">
      <defs>
       <path id="mc0d8896acc" d="M 0 0 
L -3.5 0 
" style="stroke: #000000; stroke-width: 0.8"/>
      </defs>
      <g>
       <use xlink:href="#mc0d8896acc" x="54" y="242.116364" style="stroke: #000000; stroke-width: 0.8"/>
      </g>
     </g>
     <g id="text_8">
      <!-- −1.00 -->
      <g transform="translate(16.354687 245.915582)scale(0.1 -0.1)">
       <defs>
        <path id="DejaVuSans-2212" d="M 678 2272 
L 4684 2272 
L 4684 1741 
L 678 1741 
L 678 2272 
z
" transform="scale(0.015625)"/>
       </defs>
       <use xlink:href="#DejaVuSans-2212"/>
       <use xlink:href="#DejaVuSans-31" x="83.789062"/>
       <use xlink:href="#DejaVuSans-2e" x="147.412109"/>
       <use xlink:href="#DejaVuSans-30" x="179.199219"/>
       <use xlink:href="#DejaVuSans-30" x="242.822266"/>
      </g>
     </g>
    </g>
    <g id="ytick_2">
     <g id="line2d_8">
      <g>
       <use xlink:href="#mc0d8896acc" x="54" y="217.407273" style="stroke: #000000; stroke-width: 0.8"/>
      </g>
     </g>
     <g id="text_9">
      <!-- −0.75 -->
      <g transform="translate(16.354687 221.206491)scale(0.1 -0.1)">
       <defs>
        <path id="DejaVuSans-37" d="M 525 4666 
L 3525 4666 
L 3525 4397 
L 1831 0 
L 1172 0 
L 2766 4134 
L 525 4134 
L 525 4666 
z
" transform="scale(0.015625)"/>
        <path id="DejaVuSans-35" d="M 691 4666 
L 3169 4666 
L 3169 4134 
L 1269 4134 
L 1269 2991 
Q 1406 3038 1543 3061 
Q 1681 3084 1819 3084 
Q 2600 3084 3056 2656 
Q 3513 2228 3513 1497 
Q 3513 744 3044 326 
Q 2575 -91 1722 -91 
Q 1428 -91 1123 -41 
Q 819 9 494 109 
L 494 744 
Q 775 591 1075 516 
Q 1375 441 1709 441 
Q 2250 441 2565 725 
Q 2881 1009 2881 1497 
Q 2881 1984 2565 2268 
Q 2250 2553 1709 2553 
Q 1456 2553 1204 2497 
Q 953 2441 691 2322 
L 691 4666 
z
" transform="scale(0.015625)"/>
       </defs>
       <use xlink:href="#DejaVuSans-2212"/>
       <use xlink:href="#DejaVuSans-30" x="83.789062"/>
       <use xlink:href="#DejaVuSans-2e" x="147.412109"/>
       <use xlink:href="#DejaVuSans-37" x="179.199219"/>
       <use xlink:href="#DejaVuSans-35" x="242.822266"/>
      </g>
     </g>
    </g>
    <g id="ytick_3">
     <g id="line2d_9">
      <g>
       <use xlink:href="#mc0d8896acc" x="54" y="192.698182" style="stroke: #000000; stroke-width: 0.8"/>
      </g>
     </g>
     <g id="text_10">
      <!-- −0.50 -->
      <g transform="translate(16.354687 196.497401)scale(0.1 -0.1)">
       <use xlink:href="#DejaVuSans-2212"/>
       <use xlink:href="#DejaVuSans-30" x="83.789062"/>
       <use xlink:href="#DejaVuSans-2e" x="147.412109"/>
       <use xlink:href="#DejaVuSans-35" x="179.199219"/>
       <use xlink:href="#DejaVuSans-30" x="242.822266"/>
      </g>
     </g>
    </g>
    <g id="ytick_4">
     <g id="line2d_10">
      <g>
       <use xlink:href="#mc0d8896acc" x="54" y="167.989091" style="stroke: #000000; stroke-width: 0.8"/>
      </g>
     </g>
     <g id="text_11">
      <!-- −0.25 -->
      <g transform="translate(16.354687 171.78831)scale(0.1 -0.1)">
       <use xlink:href="#DejaVuSans-2212"/>
       <use xlink:href="#DejaVuSans-30" x="83.789062"/>
       <use xlink:href="#DejaVuSans-2e" x="147.412109"/>
       <use xlink:href="#DejaVuSans-32" x="179.199219"/>
       <use xlink:href="#DejaVuSans-35" x="242.822266"/>
      </g>
     </g>
    </g>
    <g id="ytick_5">
     <g id="line2d_11">
      <g>
       <use xlink:href="#mc0d8896acc" x="54" y="143.28" style="stroke: #000000; stroke-width: 0.8"/>
      </g>
     </g>
     <g id="text_12">
      <!-- 0.00 -->
      <g transform="translate(24.734375 147.079219)scale(0.1 -0.1)">
       <use xlink:href="#DejaVuSans-30"/>
       <use xlink:href="#DejaVuSans-2e" x="63.623047"/>
       <use xlink:href="#DejaVuSans-30" x="95.410156"/>
       <use xlink:href="#DejaVuSans-30" x="159.033203"/>
      </g>
     </g>
    </g>
    <g id="ytick_6">
     <g id="line2d_12">
      <g>
       <use xlink:href="#mc0d8896acc" x="54" y="118.570909" style="stroke: #000000; stroke-width: 0.8"/>
      </g>
     </g>
     <g id="text_13">
      <!-- 0.25 -->
      <g transform="translate(24.734375 122.370128)scale(0.1 -0.1)">
       <use xlink:href="#DejaVuSans-30"/>
       <use xlink:href="#DejaVuSans-2e" x="63.623047"/>
       <use xlink:href="#DejaVuSans-32" x="95.410156"/>
       <use xlink:href="#DejaVuSans-35" x="159.033203"/>
      </g>
     </g>
    </g>
    <g id="ytick_7">
     <g id="line2d_13">
      <g>
       <use xlink:href="#mc0d8896acc" x="54" y="93.861818" style="stroke: #000000; stroke-width: 0.8"/>
      </g>
     </g>
     <g id="text_14">
      <!-- 0.50 -->
      <g transform="translate(24.734375 97.661037)scale(0.1 -0.1)">
       <use xlink:href="#DejaVuSans-30"/>
       <use xlink:href="#DejaVuSans-2e" x="63.623047"/>
       <use xlink:href="#DejaVuSans-35" x="95.410156"/>
       <use xlink:href="#DejaVuSans-30" x="159.033203"/>
      </g>
     </g>
    </g>
    <g id="ytick_8">
     <g id="line2d_14">
      <g>
       <use xlink:href="#mc0d8896acc" x="54" y="69.152727" style="stroke: #000000; stroke-width: 0.8"/>
      </g>
     </g>
     <g id="text_15">
      <!-- 0.75 -->
      <g transform="translate(24.734375 72.951946)scale(0.1 -0.1)">
       <use xlink:href="#DejaVuSans-30"/>
       <use xlink:href="#DejaVuSans-2e" x="63.623047"/>
       <use xlink:href="#DejaVuSans-37" x="95.410156"/>
       <use xlink:href="#DejaVuSans-35" x="159.033203"/>
      </g>
     </g>
    </g>
    <g id="ytick_9">
     <g id="line2d_15">
      <g>
       <use xlink:href="#mc0d8896acc" x="54" y="44.443636" style="stroke: #000000; stroke-width: 0.8"/>
      </g>
     </g>
     <g id="text_16">
      <!-- 1.00 -->
      <g transform="translate(24.734375 48.242855)scale(0.1 -0.1)">
       <use xlink:href="#DejaVuSans-31"/>
       <use xlink:href="#DejaVuSans-2e" x="63.623047"/>
       <use xlink:href="#DejaVuSans-30" x="95.410156"/>
       <use xlink:href="#DejaVuSans-30" x="159.033203"/>
      </g>
     </g>
    </g>
    <g id="text_17">
     <!-- Bz(x) -->
     <g transform="translate(10.275 156.195625)rotate(-90)scale(0.1 -0.1)">
      <defs>
       <path id="DejaVuSans-42" d="M 1259 2228 
L 1259 519 
L 2272 519 
Q 2781 519 3026 730 
Q 3272 941 3272 1375 
Q 3272 1813 3026 2020 
Q 2781 2228 2272 2228 
L 1259 2228 
z
M 1259 4147 
L 1259 2741 
L 2194 2741 
Q 2656 2741 2882 2914 
Q 3109 3088 3109 3444 
Q 3109 3797 2882 3972 
Q 2656 4147 2194 4147 
L 1259 4147 
z
M 628 4666 
L 2241 4666 
Q 2963 4666 3353 4366 
Q 3744 4066 3744 3513 
Q 3744 3084 3544 2831 
Q 3344 2578 2956 2516 
Q 3422 2416 3680 2098 
Q 3938 1781 3938 1306 
Q 3938 681 3513 340 
Q 3088 0 2303 0 
L 628 0 
L 628 4666 
z
" transform="scale(0.015625)"/>
       <path id="DejaVuSans-7a" d="M 353 3500 
L 3084 3500 
L 3084 2975 
L 922 459 
L 3084 459 
L 3084 0 
L 275 0 
L 275 525 
L 2438 3041 
L 353 3041 
L 353 3500 
z
" transform="scale(0.015625)"/>
       <path id="DejaVuSans-28" d="M 1984 4856 
Q 1566 4138 1362 3434 
Q 1159 2731 1159 2009 
Q 1159 1288 1364 580 
Q 1569 -128 1984 -844 
L 1484 -844 
Q 1016 -109 783 600 
Q 550 1309 550 2009 
Q 550 2706 781 3412 
Q 1013 4119 1484 4856 
L 1984 4856 
z
" transform="scale(0.015625)"/>
       <path id="DejaVuSans-29" d="M 513 4856 
L 1013 4856 
Q 1481 4119 1714 3412 
Q 1947 2706 1947 2009 
Q 1947 1309 1714 600 
Q 1481 -109 1013 -844 
L 513 -844 
Q 928 -128 1133 580 
Q 1338 1288 1338 2009 
Q 1338 2731 1133 3434 
Q 928 4138 513 4856 
z
" transform="scale(0.015625)"/>
      </defs>
      <use xlink:href="#DejaVuSans-42"/>
      <use xlink:href="#DejaVuSans-7a" x="68.603516"/>
      <use xlink:href="#DejaVuSans-28" x="121.09375"/>
      <use xlink:href="#DejaVuSans-78" x="160.107422"/>
      <use xlink:href="#DejaVuSans-29" x="219.287109"/>
     </g>
    </g>
   </g>
   <g id="line2d_16">
    <path d="M 69.218182 44.443636 
L 72.292562 44.493396 
L 75.366942 44.642626 
L 78.441322 44.891175 
L 81.515702 45.238793 
L 84.590083 45.685131 
L 87.664463 46.229738 
L 90.738843 46.872067 
L 93.813223 47.61147 
L 96.887603 48.447204 
L 99.961983 49.378426 
L 103.036364 50.404198 
L 106.110744 51.523489 
L 109.185124 52.735171 
L 112.259504 54.038024 
L 115.333884 55.430736 
L 118.408264 56.911905 
L 121.482645 58.480039 
L 124.557025 60.13356 
L 127.631405 61.870802 
L 130.705785 63.690016 
L 133.780165 65.58937 
L 136.854545 67.566953 
L 139.928926 69.620772 
L 143.003306 71.748759 
L 146.077686 73.948773 
L 149.152066 76.218597 
L 152.226446 78.555946 
L 155.300826 80.958467 
L 158.375207 83.423741 
L 161.449587 85.949284 
L 164.523967 88.532555 
L 167.598347 91.170952 
L 170.672727 93.861818 
L 173.747107 96.602444 
L 176.821488 99.390071 
L 179.895868 102.221891 
L 182.970248 105.095053 
L 186.044628 108.006664 
L 189.119008 110.953792 
L 192.193388 113.93347 
L 195.267769 116.942697 
L 198.342149 119.978444 
L 201.416529 123.037654 
L 204.490909 126.117246 
L 207.565289 129.214119 
L 210.639669 132.325155 
L 213.71405 135.447222 
L 216.78843 138.577176 
L 219.86281 141.711866 
L 222.93719 144.848134 
L 226.01157 147.982824 
L 229.08595 151.112778 
L 232.160331 154.234845 
L 235.234711 157.345881 
L 238.309091 160.442754 
L 241.383471 163.522346 
L 244.457851 166.581556 
L 247.532231 169.617303 
L 250.606612 172.62653 
L 253.680992 175.606208 
L 256.755372 178.553336 
L 259.829752 181.464947 
L 262.904132 184.338109 
L 265.978512 187.169929 
L 269.052893 189.957556 
L 272.127273 192.698182 
L 275.201653 195.389048 
L 278.276033 198.027445 
L 281.350413 200.610716 
L 284.424793 203.136259 
L 287.499174 205.601533 
L 290.573554 208.004054 
L 293.647934 210.341403 
L 296.722314 212.611227 
L 299.796694 214.811241 
L 302.871074 216.939228 
L 305.945455 218.993047 
L 309.019835 220.97063 
L 312.094215 222.869984 
L 315.168595 224.689198 
L 318.242975 226.42644 
L 321.317355 228.079961 
L 324.391736 229.648095 
L 327.466116 231.129264 
L 330.540496 232.521976 
L 333.614876 233.824829 
L 336.689256 235.036511 
L 339.763636 236.155802 
L 342.838017 237.181574 
L 345.912397 238.112796 
L 348.986777 238.94853 
L 352.061157 239.687933 
L 355.135537 240.330262 
L 358.209917 240.874869 
L 361.284298 241.321207 
L 364.358678 241.668825 
L 367.433058 241.917374 
L 370.507438 242.066604 
L 373.581818 242.116364 
" clip-path="url(#p934c92a771)" style="fill: none; stroke: #1f77b4; stroke-width: 1.5; stroke-linecap: square"/>
   </g>
   <g id="line2d_17">
    <path d="M 69.218182 44.443636 
L 72.292562 44.543131 
L 75.366942 44.841215 
L 78.441322 45.336687 
L 81.515702 46.027553 
L 84.590083 46.911031 
L 87.664463 47.983563 
L 90.738843 49.24083 
L 93.813223 50.677771 
L 96.887603 52.288598 
L 99.961983 54.066826 
L 103.036364 56.005295 
L 106.110744 58.096198 
L 109.185124 60.331117 
L 112.259504 62.701052 
L 115.333884 65.19646 
L 118.408264 67.807294 
L 121.482645 70.52304 
L 124.557025 73.332764 
L 127.631405 76.22515 
L 130.705785 79.188553 
L 133.780165 82.21104 
L 136.854545 85.280441 
L 139.928926 88.384396 
L 143.003306 91.510406 
L 146.077686 94.645885 
L 149.152066 97.778207 
L 152.226446 100.894759 
L 155.300826 103.982991 
L 158.375207 107.03047 
L 161.449587 110.024922 
L 164.523967 112.954292 
L 167.598347 115.806783 
L 170.672727 118.570909 
L 173.747107 121.235541 
L 176.821488 123.789948 
L 179.895868 126.223845 
L 182.970248 128.527432 
L 186.044628 130.691432 
L 189.119008 132.707133 
L 192.193388 134.566417 
L 195.267769 136.261798 
L 198.342149 137.78645 
L 201.416529 139.134232 
L 204.490909 140.299719 
L 207.565289 141.278216 
L 210.639669 142.065785 
L 213.71405 142.659253 
L 216.78843 143.056231 
L 219.86281 143.25512 
L 222.93719 143.25512 
L 226.01157 143.056231 
L 229.08595 142.659253 
L 232.160331 142.065785 
L 235.234711 141.278216 
L 238.309091 140.299719 
L 241.383471 139.134232 
L 244.457851 137.78645 
L 247.532231 136.261798 
L 250.606612 134.566417 
L 253.680992 132.707133 
L 256.755372 130.691432 
L 259.829752 128.527432 
L 262.904132 126.223845 
L 265.978512 123.789948 
L 269.052893 121.235541 
L 272.127273 118.570909 
L 275.201653 115.806783 
L 278.276033 112.954292 
L 281.350413 110.024922 
L 284.424793 107.03047 
L 287.499174 103.982991 
L 290.573554 100.894759 
L 293.647934 97.778207 
L 296.722314 94.645885 
L 299.796694 91.510406 
L 302.871074 88.384396 
L 305.945455 85.280441 
L 309.019835 82.21104 
L 312.094215 79.188553 
L 315.168595 76.22515 
L 318.242975 73.332764 
L 321.317355 70.52304 
L 324.391736 67.807294 
L 327.466116 65.19646 
L 330.540496 62.701052 
L 333.614876 60.331117 
L 336.689256 58.096198 
L 339.763636 56.005295 
L 342.838017 54.066826 
L 345.912397 52.288598 
L 348.986777 50.677771 
L 352.061157 49.24083 
L 355.135537 47.983563 
L 358.209917 46.911031 
L 361.284298 46.027553 
L 364.358678 45.336687 
L 367.433058 44.841215 
L 370.507438 44.543131 
L 373.581818 44.443636 
" clip-path="url(#p934c92a771)" style="fill: none; stroke: #ff7f0e; stroke-width: 1.5; stroke-linecap: square"/>
   </g>
   <g id="line2d_18">
    <path d="M 69.218182 44.443636 
L 72.292562 44.642626 
L 75.366942 45.238793 
L 78.441322 46.229738 
L 81.515702 47.61147 
L 84.590083 49.378426 
L 87.664463 51.523489 
L 90.738843 54.038024 
L 93.813223 56.911905 
L 96.887603 60.13356 
L 99.961983 63.690016 
L 103.036364 67.566953 
L 106.110744 71.748759 
L 109.185124 76.218597 
L 112.259504 80.958467 
L 115.333884 85.949284 
L 118.408264 91.170952 
L 121.482645 96.602444 
L 124.557025 102.221891 
L 127.631405 108.006664 
L 130.705785 113.93347 
L 133.780165 119.978444 
L 136.854545 126.117246 
L 139.928926 132.325155 
L 143.003306 138.577176 
L 146.077686 144.848134 
L 149.152066 151.112778 
L 152.226446 157.345881 
L 155.300826 163.522346 
L 158.375207 169.617303 
L 161.449587 175.606208 
L 164.523967 181.464947 
L 167.598347 187.169929 
L 170.672727 192.698182 
L 173.747107 198.027445 
L 176.821488 203.136259 
L 179.895868 208.004054 
L 182.970248 212.611227 
L 186.044628 216.939228 
L 189.119008 220.97063 
L 192.193388 224.689198 
L 195.267769 228.079961 
L 198.342149 231.129264 
L 201.416529 233.824829 
L 204.490909 236.155802 
L 207.565289 238.112796 
L 210.639669 239.687933 
L 213.71405 240.874869 
L 216.78843 241.668825 
L 219.86281 242.066604 
L 222.93719 242.066604 
L 226.01157 241.668825 
L 229.08595 240.874869 
L 232.160331 239.687933 
L 235.234711 238.112796 
L 238.309091 236.155802 
L 241.383471 233.824829 
L 244.457851 231.129264 
L 247.532231 228.079961 
L 250.606612 224.689198 
L 253.680992 220.97063 
L 256.755372 216.939228 
L 259.829752 212.611227 
L 262.904132 208.004054 
L 265.978512 203.136259 
L 269.052893 198.027445 
L 272.127273 192.698182 
L 275.201653 187.169929 
L 278.276033 181.464947 
L 281.350413 175.606208 
L 284.424793 169.617303 
L 287.499174 163.522346 
L 290.573554 157.345881 
L 293.647934 151.112778 
L 296.722314 144.848134 
L 299.796694 138.577176 
L 302.871074 132.325155 
L 305.945455 126.117246 
L 309.019835 119.978444 
L 312.094215 113.93347 
L 315.168595 108.006664 
L 318.242975 102.221891 
L 321.317355 96.602444 
L 324.391736 91.170952 
L 327.466116 85.949284 
L 330.540496 80.958467 
L 333.614876 76.218597 
L 336.689256 71.748759 
L 339.763636 67.566953 
L 342.838017 63.690016 
L 345.912397 60.13356 
L 348.986777 56.911905 
L 352.061157 54.038024 
L 355.135537 51.523489 
L 358.209917 49.378426 
L 361.284298 47.61147 
L 364.358678 46.229738 
L 367.433058 45.238793 
L 370.507438 44.642626 
L 373.581818 44.443636 
" clip-path="url(#p934c92a771)" style="fill: none; stroke: #2ca02c; stroke-width: 1.5; stroke-linecap: square"/>
   </g>
   <g id="line2d_19">
    <path d="M 69.218182 44.443636 
L 72.292562 44.692286 
L 75.366942 45.436182 
L 78.441322 46.669189 
L 81.515702 48.381141 
L 84.590083 50.557934 
L 87.664463 53.181649 
L 90.738843 56.230719 
L 93.813223 59.680115 
L 96.887603 63.501575 
L 99.961983 67.663855 
L 103.036364 72.133008 
L 106.110744 76.87269 
L 109.185124 81.844482 
L 112.259504 87.008234 
L 115.333884 92.322428 
L 118.408264 97.744541 
L 121.482645 103.231431 
L 124.557025 108.739721 
L 127.631405 114.226179 
L 130.705785 119.648112 
L 133.780165 124.96374 
L 136.854545 130.132567 
L 139.928926 135.115744 
L 143.003306 139.876407 
L 146.077686 144.380007 
L 149.152066 148.594613 
L 152.226446 152.491193 
L 155.300826 156.043865 
L 158.375207 159.230126 
L 161.449587 162.03104 
L 164.523967 164.431408 
L 167.598347 166.419888 
L 170.672727 167.989091 
L 173.747107 169.135635 
L 176.821488 169.860166 
L 179.895868 170.167344 
L 182.970248 170.065782 
L 186.044628 169.567964 
L 189.119008 168.690116 
L 192.193388 167.45205 
L 195.267769 165.876969 
L 198.342149 163.991249 
L 201.416529 161.824185 
L 204.490909 159.407714 
L 207.565289 156.776114 
L 210.639669 153.965682 
L 213.71405 151.014389 
L 216.78843 147.961529 
L 219.86281 144.847345 
L 222.93719 141.712655 
L 226.01157 138.598471 
L 229.08595 135.545611 
L 232.160331 132.594318 
L 235.234711 129.783886 
L 238.309091 127.152286 
L 241.383471 124.735815 
L 244.457851 122.568751 
L 247.532231 120.683031 
L 250.606612 119.10795 
L 253.680992 117.869884 
L 256.755372 116.992036 
L 259.829752 116.494218 
L 262.904132 116.392656 
L 265.978512 116.699834 
L 269.052893 117.424365 
L 272.127273 118.570909 
L 275.201653 120.140112 
L 278.276033 122.128592 
L 281.350413 124.52896 
L 284.424793 127.329874 
L 287.499174 130.516135 
L 290.573554 134.068807 
L 293.647934 137.965387 
L 296.722314 142.179993 
L 299.796694 146.683593 
L 302.871074 151.444256 
L 305.945455 156.427433 
L 309.019835 161.59626 
L 312.094215 166.911888 
L 315.168595 172.333821 
L 318.242975 177.820279 
L 321.317355 183.328569 
L 324.391736 188.815459 
L 327.466116 194.237572 
L 330.540496 199.551766 
L 333.614876 204.715518 
L 336.689256 209.68731 
L 339.763636 214.426992 
L 342.838017 218.896145 
L 345.912397 223.058425 
L 348.986777 226.879885 
L 352.061157 230.329281 
L 355.135537 233.378351 
L 358.209917 236.002066 
L 361.284298 238.178859 
L 364.358678 239.890811 
L 367.433058 241.123818 
L 370.507438 241.867714 
L 373.581818 242.116364 
" clip-path="url(#p934c92a771)" style="fill: none; stroke: #d62728; stroke-width: 1.5; stroke-linecap: square"/>
   </g>
   <g id="line2d_20">
    <path d="M 69.218182 44.443636 
L 72.292562 44.841215 
L 75.366942 46.027553 
L 78.441322 47.983563 
L 81.515702 50.677771 
L 84.590083 54.066826 
L 87.664463 58.096198 
L 90.738843 62.701052 
L 93.813223 67.807294 
L 96.887603 73.332764 
L 99.961983 79.188553 
L 103.036364 85.280441 
L 106.110744 91.510406 
L 109.185124 97.778207 
L 112.259504 103.982991 
L 115.333884 110.024922 
L 118.408264 115.806783 
L 121.482645 121.235541 
L 124.557025 126.223845 
L 127.631405 130.691432 
L 130.705785 134.566417 
L 133.780165 137.78645 
L 136.854545 140.299719 
L 139.928926 142.065785 
L 143.003306 143.056231 
L 146.077686 143.25512 
L 149.152066 142.659253 
L 152.226446 141.278216 
L 155.300826 139.134232 
L 158.375207 136.261798 
L 161.449587 132.707133 
L 164.523967 128.527432 
L 167.598347 123.789948 
L 170.672727 118.570909 
L 173.747107 112.954292 
L 176.821488 107.03047 
L 179.895868 100.894759 
L 182.970248 94.645885 
L 186.044628 88.384396 
L 189.119008 82.21104 
L 192.193388 76.22515 
L 195.267769 70.52304 
L 198.342149 65.19646 
L 201.416529 60.331117 
L 204.490909 56.005295 
L 207.565289 52.288598 
L 210.639669 49.24083 
L 213.71405 46.911031 
L 216.78843 45.336687 
L 219.86281 44.543131 
L 222.93719 44.543131 
L 226.01157 45.336687 
L 229.08595 46.911031 
L 232.160331 49.24083 
L 235.234711 52.288598 
L 238.309091 56.005295 
L 241.383471 60.331117 
L 244.457851 65.19646 
L 247.532231 70.52304 
L 250.606612 76.22515 
L 253.680992 82.21104 
L 256.755372 88.384396 
L 259.829752 94.645885 
L 262.904132 100.894759 
L 265.978512 107.03047 
L 269.052893 112.954292 
L 272.127273 118.570909 
L 275.201653 123.789948 
L 278.276033 128.527432 
L 281.350413 132.707133 
L 284.424793 136.261798 
L 287.499174 139.134232 
L 290.573554 141.278216 
L 293.647934 142.659253 
L 296.722314 143.25512 
L 299.796694 143.056231 
L 302.871074 142.065785 
L 305.945455 140.299719 
L 309.019835 137.78645 
L 312.094215 134.566417 
L 315.168595 130.691432 
L 318.242975 126.223845 
L 321.317355 121.235541 
L 324.391736 115.806783 
L 327.466116 110.024922 
L 330.540496 103.982991 
L 333.614876 97.778207 
L 336.689256 91.510406 
L 339.763636 85.280441 
L 342.838017 79.188553 
L 345.912397 73.332764 
L 348.986777 67.807294 
L 352.061157 62.701052 
L 355.135537 58.096198 
L 358.209917 54.066826 
L 361.284298 50.677771 
L 364.358678 47.983563 
L 367.433058 46.027553 
L 370.507438 44.841215 
L 373.581818 44.443636 
" clip-path="url(#p934c92a771)" style="fill: none; stroke: #9467bd; stroke-width: 1.5; stroke-linecap: square"/>
   </g>
   <g id="patch_3">
    <path d="M 54 252 
L 54 34.56 
" style="fill: none; stroke: #000000; stroke-width: 0.8; stroke-linejoin: miter; stroke-linecap: square"/>
   </g>
   <g id="patch_4">
    <path d="M 388.8 252 
L 388.8 34.56 
" style="fill: none; stroke: #000000; stroke-width: 0.8; stroke-linejoin: miter; stroke-linecap: square"/>
   </g>
   <g id="patch_5">
    <path d="M 54 252 
L 388.8 252 
" style="fill: none; stroke: #000000; stroke-width: 0.8; stroke-linejoin: miter; stroke-linecap: square"/>
   </g>
   <g id="patch_6">
    <path d="M 54 34.56 
L 388.8 34.56 
" style="fill: none; stroke: #000000; stroke-width: 0.8; stroke-linejoin: miter; stroke-linecap: square"/>
   </g>
   <g id="legend_1">
    <g id="patch_7">
     <path d="M 61 247 
L 141.740625 247 
Q 143.740625 247 143.740625 245 
L 143.740625 172.609375 
Q 143.740625 170.609375 141.740625 170.609375 
L 61 170.609375 
Q 59 170.609375 59 172.609375 
L 59 245 
Q 59 247 61 247 
z
" style="fill: #ffffff; opacity: 0.8; stroke: #cccccc; stroke-linejoin: miter"/>
    </g>
    <g id="line2d_21">
     <path d="M 63 178.707812 
L 73 178.707812 
L 83 178.707812 
" style="fill: none; stroke: #1f77b4; stroke-width: 1.5; stroke-linecap: square"/>
    </g>
    <g id="text_18">
     <!-- m=1,n=0 -->
     <g transform="translate(91 182.207812)scale(0.1 -0.1)">
      <defs>
       <path id="DejaVuSans-6d" d="M 3328 2828 
Q 3544 3216 3844 3400 
Q 4144 3584 4550 3584 
Q 5097 3584 5394 3201 
Q 5691 2819 5691 2113 
L 5691 0 
L 5113 0 
L 5113 2094 
Q 5113 2597 4934 2840 
Q 4756 3084 4391 3084 
Q 3944 3084 3684 2787 
Q 3425 2491 3425 1978 
L 3425 0 
L 2847 0 
L 2847 2094 
Q 2847 2600 2669 2842 
Q 2491 3084 2119 3084 
Q 1678 3084 1418 2786 
Q 1159 2488 1159 1978 
L 1159 0 
L 581 0 
L 581 3500 
L 1159 3500 
L 1159 2956 
Q 1356 3278 1631 3431 
Q 1906 3584 2284 3584 
Q 2666 3584 2933 3390 
Q 3200 3197 3328 2828 
z
" transform="scale(0.015625)"/>
       <path id="DejaVuSans-3d" d="M 678 2906 
L 4684 2906 
L 4684 2381 
L 678 2381 
L 678 2906 
z
M 678 1631 
L 4684 1631 
L 4684 1100 
L 678 1100 
L 678 1631 
z
" transform="scale(0.015625)"/>
       <path id="DejaVuSans-2c" d="M 750 794 
L 1409 794 
L 1409 256 
L 897 -744 
L 494 -744 
L 750 256 
L 750 794 
z
" transform="scale(0.015625)"/>
       <path id="DejaVuSans-6e" d="M 3513 2113 
L 3513 0 
L 2938 0 
L 2938 2094 
Q 2938 2591 2744 2837 
Q 2550 3084 2163 3084 
Q 1697 3084 1428 2787 
Q 1159 2491 1159 1978 
L 1159 0 
L 581 0 
L 581 3500 
L 1159 3500 
L 1159 2956 
Q 1366 3272 1645 3428 
Q 1925 3584 2291 3584 
Q 2894 3584 3203 3211 
Q 3513 2838 3513 2113 
z
" transform="scale(0.015625)"/>
      </defs>
      <use xlink:href="#DejaVuSans-6d"/>
      <use xlink:href="#DejaVuSans-3d" x="97.412109"/>
      <use xlink:href="#DejaVuSans-31" x="181.201172"/>
      <use xlink:href="#DejaVuSans-2c" x="244.824219"/>
      <use xlink:href="#DejaVuSans-6e" x="276.611328"/>
      <use xlink:href="#DejaVuSans-3d" x="339.990234"/>
      <use xlink:href="#DejaVuSans-30" x="423.779297"/>
     </g>
    </g>
    <g id="line2d_22">
     <path d="M 63 193.385938 
L 73 193.385938 
L 83 193.385938 
" style="fill: none; stroke: #ff7f0e; stroke-width: 1.5; stroke-linecap: square"/>
    </g>
    <g id="text_19">
     <!-- m=1,n=1 -->
     <g transform="translate(91 196.885938)scale(0.1 -0.1)">
      <use xlink:href="#DejaVuSans-6d"/>
      <use xlink:href="#DejaVuSans-3d" x="97.412109"/>
      <use xlink:href="#DejaVuSans-31" x="181.201172"/>
      <use xlink:href="#DejaVuSans-2c" x="244.824219"/>
      <use xlink:href="#DejaVuSans-6e" x="276.611328"/>
      <use xlink:href="#DejaVuSans-3d" x="339.990234"/>
      <use xlink:href="#DejaVuSans-31" x="423.779297"/>
     </g>
    </g>
    <g id="line2d_23">
     <path d="M 63 208.064063 
L 73 208.064063 
L 83 208.064063 
" style="fill: none; stroke: #2ca02c; stroke-width: 1.5; stroke-linecap: square"/>
    </g>
    <g id="text_20">
     <!-- m=2,n=0 -->
     <g transform="translate(91 211.564063)scale(0.1 -0.1)">
      <use xlink:href="#DejaVuSans-6d"/>
      <use xlink:href="#DejaVuSans-3d" x="97.412109"/>
      <use xlink:href="#DejaVuSans-32" x="181.201172"/>
      <use xlink:href="#DejaVuSans-2c" x="244.824219"/>
      <use xlink:href="#DejaVuSans-6e" x="276.611328"/>
      <use xlink:href="#DejaVuSans-3d" x="339.990234"/>
      <use xlink:href="#DejaVuSans-30" x="423.779297"/>
     </g>
    </g>
    <g id="line2d_24">
     <path d="M 63 222.742188 
L 73 222.742188 
L 83 222.742188 
" style="fill: none; stroke: #d62728; stroke-width: 1.5; stroke-linecap: square"/>
    </g>
    <g id="text_21">
     <!-- m=2,n=1 -->
     <g transform="translate(91 226.242188)scale(0.1 -0.1)">
      <use xlink:href="#DejaVuSans-6d"/>
      <use xlink:href="#DejaVuSans-3d" x="97.412109"/>
      <use xlink:href="#DejaVuSans-32" x="181.201172"/>
      <use xlink:href="#DejaVuSans-2c" x="244.824219"/>
      <use xlink:href="#DejaVuSans-6e" x="276.611328"/>
      <use xlink:href="#DejaVuSans-3d" x="339.990234"/>
      <use xlink:href="#DejaVuSans-31" x="423.779297"/>
     </g>
    </g>
    <g id="line2d_25">
     <path d="M 63 237.420313 
L 73 237.420313 
L 83 237.420313 
" style="fill: none; stroke: #9467bd; stroke-width: 1.5; stroke-linecap: square"/>
    </g>
    <g id="text_22">
     <!-- m=2,n=2 -->
     <g transform="translate(91 240.920313)scale(0.1 -0.1)">
      <use xlink:href="#DejaVuSans-6d"/>
      <use xlink:href="#DejaVuSans-3d" x="97.412109"/>
      <use xlink:href="#DejaVuSans-32" x="181.201172"/>
      <use xlink:href="#DejaVuSans-2c" x="244.824219"/>
      <use xlink:href="#DejaVuSans-6e" x="276.611328"/>
      <use xlink:href="#DejaVuSans-3d" x="339.990234"/>
      <use xlink:href="#DejaVuSans-32" x="423.779297"/>
     </g>
    </g>
   </g>
  </g>
 </g>
 <defs>
  <clipPath id="p934c92a771">
   <rect x="54" y="34.56" width="334.8" height="217.44"/>
  </clipPath>
 </defs>
</svg>
