<svg width="484" height="418" xmlns="http://www.w3.org/2000/svg" xmlns:xlink="http://www.w3.org/1999/xlink" overflow="hidden"><defs><clipPath id="clip0"><rect x="378" y="118" width="484" height="418"/></clipPath></defs><g clip-path="url(#clip0)" transform="translate(-378 -118)"><path d="M379 336 835.333 336 835.333 338 379 338ZM834 333 842 337 834 341Z"/><path d="M1-2.65118e-07 1.0001 389.334-0.999897 389.334-1 2.65118e-07ZM4.0001 388 0.000104987 396-3.9999 388Z" transform="matrix(1 0 0 -1 442 535)"/><path d="M458 148C480.583 302.997 503.167 457.994 536 496.18 568.833 534.367 611.167 400.798 655 377.119 698.833 353.44 748.917 353.773 799 354.107" stroke="#4472C4" stroke-width="2" stroke-miterlimit="8" fill="none" fill-rule="evenodd"/><text font-family="Cambria Math,Cambria Math_MSFontService,sans-serif" font-weight="400" font-size="24" transform="translate(836.037 364)">𝑟<tspan font-size="24" x="-443.91" y="-218">𝑉</tspan><tspan font-size="18" x="-432.097" y="-213">𝑒𝑓𝑓</tspan></text><path d="M469.5 224.5 469.5 337.5" stroke="#000000" stroke-linejoin="round" stroke-miterlimit="10" stroke-dasharray="4 3" fill="none" fill-rule="evenodd"/><text font-family="Cambria Math,Cambria Math_MSFontService,sans-serif" font-weight="400" font-size="24" transform="translate(458.98 352)">𝑟<tspan font-size="18" x="8.13998" y="5">1</tspan></text><path d="M442.5 441.5 717.833 441.5" stroke="#000000" stroke-linejoin="round" stroke-miterlimit="10" stroke-dasharray="4 3" fill="none" fill-rule="evenodd"/><path d="M0 0 0.000104987 103.889" stroke="#000000" stroke-linejoin="round" stroke-miterlimit="10" stroke-dasharray="4 3" fill="none" fill-rule="evenodd" transform="matrix(1 0 0 -1 512.5 441.389)"/><path d="M0 0 0.000104987 103.889" stroke="#000000" stroke-linejoin="round" stroke-miterlimit="10" stroke-dasharray="4 3" fill="none" fill-rule="evenodd" transform="matrix(1 0 0 -1 604.5 441.389)"/><path d="M0 0 0.000104987 165.816" stroke="#000000" stroke-linejoin="round" stroke-miterlimit="10" stroke-dasharray="4 3" fill="none" fill-rule="evenodd" transform="matrix(1 0 0 -1 549.5 503.316)"/><path d="M442.5 503.5 549.833 503.5" stroke="#000000" stroke-linejoin="round" stroke-miterlimit="10" stroke-dasharray="4 3" fill="none" fill-rule="evenodd"/><text font-family="Cambria Math,Cambria Math_MSFontService,sans-serif" font-weight="400" font-size="24" transform="translate(516.446 352)">𝑟<tspan font-size="18" x="8.6933" y="5">2</tspan><tspan font-size="24" x="43.1372" y="0">𝑟</tspan><tspan font-size="18" x="51.8305" y="5">3</tspan><tspan font-size="24" x="93.7791" y="0">𝑟</tspan><tspan font-size="18" x="101.446" y="5">4</tspan></text></g></svg>